<svg width="19" height="17" viewBox="0 0 19 17" fill="none" xmlns="http://www.w3.org/2000/svg">
<path d="M8.81245 10.2916C9.2556 10.7005 9.83455 10.9306 10.4374 10.9375C10.4947 10.9422 10.5524 10.9344 10.6063 10.9146C10.6603 10.8948 10.7093 10.8635 10.7499 10.8229L17.5312 4.33332C17.78 4.08779 17.9753 3.79339 18.1047 3.46866C18.2341 3.14394 18.2948 2.79593 18.2831 2.44657C18.2713 2.0972 18.1874 1.75406 18.0364 1.43876C17.8855 1.12346 17.6709 0.842833 17.4062 0.614566C17.1496 0.393231 16.8511 0.225891 16.5284 0.122548C16.2057 0.0192039 15.8655 -0.0180228 15.5281 0.0130927C15.1907 0.0442082 14.863 0.143027 14.5646 0.303643C14.2663 0.46426 14.0034 0.683377 13.7916 0.9479L8.20828 8.59373C8.17387 8.6413 8.14963 8.69545 8.13709 8.7528C8.12454 8.81015 8.12396 8.86948 8.13536 8.92707C8.21493 9.44087 8.45143 9.9175 8.81245 10.2916ZM0.958282 13.9479C1.18642 14.0103 1.42814 14.0018 1.65138 13.9237C1.87461 13.8456 2.06883 13.7014 2.20828 13.5104C2.66661 12.8437 2.80203 11.4271 3.79162 10.5521C4.15564 10.2152 4.58748 9.96008 5.05819 9.80377C5.52889 9.64747 6.02756 9.59362 6.52078 9.64582C6.57842 9.65307 6.63239 9.678 6.67529 9.71716C6.71819 9.75633 6.74791 9.80783 6.76037 9.86457C6.85465 10.5485 7.19543 11.1745 7.7187 11.625C8.32452 12.0098 8.99509 12.2815 9.69787 12.4271C9.75949 12.437 9.81547 12.4688 9.85562 12.5166C9.89577 12.5644 9.91742 12.6251 9.91661 12.6875C9.97911 13.6041 9.91662 17.0625 5.35412 16.9166C0.124949 16.8333 0.499948 13.7812 0.958282 13.9479Z" fill="white"/>
</svg>
